<mxfile host="app.diagrams.net" modified="2023-12-22T01:34:56.268Z" agent="Mozilla/5.0 (X11; Ubuntu; Linux x86_64; rv:120.0) Gecko/20100101 Firefox/120.0" version="22.1.11" etag="zzT3cDNF_AJJ4NDlhhRx" type="github">
  <diagram name="Page-1" id="dGdufrO4xM6UofP9O-OL">
    <mxGraphModel>
      <root>
        <mxCell id="0" />
        <mxCell id="1" parent="0" />
      </root>
    </mxGraphModel>
  </diagram>
</mxfile>
